<svg xmlns="http://www.w3.org/2000/svg" width="26" height="26" viewBox="0 0 26 26">
  <g fill="none" fill-rule="evenodd">
    <path fill="#000" d="M21.5,25 C22.3284271,25 23,24.3284271 23,23.5 C23,22.6715729 22.3284271,22 21.5,22 C20.6715729,22 20,22.6715729 20,23.5 C20,24.3284271 20.6715729,25 21.5,25 Z"/>
    <circle cx="8.5" cy="23.5" r="1.5" fill="#000" opacity=".9"/>
    <path fill="#000" fill-rule="nonzero" d="M4.56867773,2 L0.5,2 C0.223857625,2 -3.37507799e-14,1.77614237 -3.37507799e-14,1.5 C-3.37507799e-14,1.22385763 0.223857625,1 0.5,1 L4.98382775,1 C5.22451865,1 5.4310527,1.17148522 5.47530457,1.40807322 L5.97935047,4.10290147 L24.5047412,4.27857401 C24.8115268,4.2814832 25.0433585,4.55744651 24.9932993,4.86013442 L22.724017,18.5815829 C22.6840976,18.8229601 22.4753737,19 22.2307177,19 L8.16354067,19 C7.92284977,19 7.71631572,18.8285148 7.67206385,18.5919268 L4.56867773,2 Z M6.16673317,5.10472334 L8.57869069,18 L21.8066171,18 L23.9114366,5.27299278 L6.16673317,5.10472334 Z"/>
    <text fill="#000" font-family="HelveticaNeue-Bold, Helvetica Neue" font-size="9" font-weight="bold" letter-spacing=".208">
      <tspan x="12.394" y="14.5">1</tspan>
    </text>
  </g>
</svg>
