<svg xmlns="http://www.w3.org/2000/svg" width="26" height="26" viewBox="0 0 26 26">
  <path fill-rule="evenodd" d="M11.8194193,21.347854 C12.2750631,21.8404475 12.6814047,22.2940029 13.0333308,22.6982597 C13.0473147,22.7143229 13.0610169,22.730082 13.074436,22.745534 C13.0859655,22.7315629 13.0977115,22.7173478 13.1096733,22.7028909 C13.4477291,22.2943205 13.8396241,21.8369467 14.2810107,21.3414215 C15.5413021,19.9265483 16.9469831,18.4875353 18.463637,17.1095603 C24.4084374,11.7061028 26.4991753,7.1755787 22.6628729,3.69272752 C19.9701053,1.33805167 17.4105193,1.79756455 15.0281297,4.03227004 C14.5781076,4.45439539 14.1750091,4.90800571 13.8258265,5.36128327 C13.6177698,5.63136382 13.4755456,5.83873172 13.4053236,5.95154128 L12.952832,6.67845584 L12.5421197,5.92714448 C12.4790148,5.81170746 12.3495238,5.59894646 12.1578779,5.32169581 C11.8362183,4.85635681 11.4604963,4.39071938 11.0358656,3.95759516 C8.76524768,1.64155992 6.20202277,1.18316313 3.32754133,3.66640705 C-0.286988067,7.35248819 1.79254312,11.885379 7.55006136,17.1122782 C9.08163636,18.5020136 10.5182701,19.94119 11.8194193,21.347854 Z M13.0336314,4.75101538 C13.413772,4.25755086 13.851991,3.76441911 14.3439906,3.30291851 C17.0621556,0.753252252 20.1803102,0.193461651 23.3280888,2.94613443 C27.8153933,7.01987201 25.4776754,12.0855895 19.1361718,17.8496258 C17.6473681,19.2022971 16.2658919,20.6165314 15.0277314,22.0065592 C14.5946599,22.4927494 14.2106462,22.9409251 13.8801338,23.3403787 C13.6827815,23.5788964 13.5477414,23.7473526 13.4794398,23.8350464 L13.0970095,24.3260561 L12.6999472,23.8468015 C12.6275883,23.7594642 12.4855781,23.5920501 12.2790935,23.3548616 C11.9335943,22.9579874 11.5339382,22.5118943 11.0853159,22.0268917 C9.8028608,20.6404378 8.38647034,19.2215415 6.8780338,17.8528043 C0.741637403,12.2819597 -1.57329647,7.23598008 2.64350613,2.93811756 C5.99882181,0.0368760756 9.14386471,0.599322846 11.7499392,3.25752452 C12.2173566,3.73429131 12.6282661,4.2435371 12.980482,4.75308132 C12.9887086,4.7649825 12.9968374,4.77678569 13.0048684,4.78848903 C13.0143328,4.77611308 13.0239206,4.76362107 13.0336314,4.75101538 Z"/>
</svg>
