<svg xmlns="http://www.w3.org/2000/svg" width="26" height="26" viewBox="0 0 26 26">
  <path fill-rule="evenodd" d="M14.4081519,0.867116068 C14.6295582,0.596267693 14.976404,0.460809521 15.3227678,0.509919345 C15.8695834,0.587450617 16.2500135,1.09358379 16.1724823,1.64039944 L15.0612849,9.47749635 L21.5324623,9.47749635 C21.7845632,9.47749635 22.027362,9.57271507 22.2122541,9.7440912 C22.6173026,10.1195298 22.6413061,10.7522397 22.2658675,11.1572882 L9.24021705,25.2102364 C9.01124256,25.4572695 8.67328909,25.5724331 8.34111488,25.5166213 C7.79646452,25.4251093 7.42912326,24.9093979 7.5206352,24.3647476 L8.99868839,15.5678388 L4.50003038,15.5678388 C4.26933757,15.5678388 4.04573979,15.4880775 3.86712979,15.3420719 C3.43953267,14.9925305 3.37625596,14.3625353 3.7257973,13.9349382 L14.4081519,0.867116068 Z M15.182385,1.50001665 L4.50003038,14.5678388 L8.99868839,14.5678388 C9.55097314,14.5678388 9.99868839,15.015554 9.99868839,15.5678388 C9.99868839,15.6233591 9.99406464,15.678783 9.98486509,15.7335358 L8.5068119,24.5304446 L21.5324623,10.4774963 L15.0612849,10.4774963 C14.5090002,10.4774963 14.0612849,10.0297811 14.0612849,9.47749635 C14.0612849,9.43052759 14.064594,9.3836172 14.0711876,9.33711356 L15.182385,1.50001665 Z"/>
</svg>
