<svg xmlns="http://www.w3.org/2000/svg" width="108" height="17" viewBox="0 0 108 17">
  <g fill="none" fill-rule="evenodd">
    <path fill="#333" fill-rule="nonzero" d="M22.6256025 0L24.6844809 0 24.6844809 4.93221354 24.7208865 4.93221354C25.2807748 3.99825443 26.454686 3.41887768 27.502328 3.41887768 30.4459029 3.41887768 31.8732999 5.73638466 31.8732999 8.55788585 31.8732999 11.1540512 30.6091191 13.6017522 27.8452714 13.6017522 26.5809552 13.6017522 25.2263694 13.2849288 24.6120757 12.0139811L24.5763468 12.0139811 24.5763468 13.3412289 22.6254672 13.3412289 22.6254672.00027067349 22.6256025 0M27.2311131 5.10043715C25.4978549 5.10043715 24.6122111 6.46463187 24.6122111 8.51985617 24.6122111 10.4624803 25.5698541 11.9207341 27.2311131 11.9207341 29.1098582 11.9207341 29.8141508 10.2014157 29.8141508 8.51985617 29.8127975 6.76386148 28.927695 5.10043715 27.2305717 5.10043715M47.8226039 3.444321C46.5944225 3.444321 45.5285101 4.09813297 44.9143518 5.16377476L44.8783522 5.12588046 44.8783522 3.70619766 42.9276079 3.70619766 42.9276079 11.9330497C41.753426 11.9463128 41.6440739 11.9463128 41.554481 11.9463128 41.1752673 11.9463128 41.0665919 11.7408715 41.0665919 11.2176595L41.0665919 6.24701033C41.0665919 4.21100384 39.1522532 3.444321 37.3275074 3.444321 35.2684937 3.444321 33.2278857 4.17270353 33.0838873 6.65843413L35.1423598 6.65843413C35.2330354 5.61201017 36.0453268 5.12588046 37.2013735 5.12588046 38.0320706 5.12588046 39.1339827 5.33199837 39.1339827 6.4341811 39.1339827 7.68591095 37.8155318 7.51768733 36.3344061 7.79837581 34.6004713 8.0032757 32.7402673 8.39669971 32.7402673 10.8058297 32.7402673 12.6936424 34.2572573 13.6271955 35.9367866 13.6271955 37.0388341 13.6271955 38.3570142 13.2722071 39.1702529 12.4515249 39.3321157 13.3290486 39.9289509 13.6271955 40.7595127 13.6271955 41.1025915 13.6271955 41.7527494 13.4970015 44.9737647 13.3848074L44.9737647 13.3658602 44.9864863 13.3658602 44.9864863 7.66777582C44.9864863 6.24728101 45.8717242 5.12615113 47.2441744 5.12615113 48.4542206 5.12615113 49.0327853 5.78050446 49.0683788 7.29356964L49.0683788 13.3661308 51.1282046 13.3661308 51.1282046 6.73341071C51.1321294 4.56612755 49.849272 3.44459167 47.8259872 3.44459167L47.8226039 3.444321zM39.0115029 10.1152061C39.0115029 11.4603184 37.6026471 11.9465834 36.6995447 11.9465834 35.9768464 11.9465834 34.8025291 11.6653536 34.8025291 10.713124 34.8025291 9.59158811 35.5976327 9.25514085 36.4830059 9.1054584 37.3857021 8.93750546 38.3792095 8.95685859 39.0115029 8.52702907L39.0115029 10.1152061zM61.7311645 13.3402815L59.7802849 13.3402815 59.7802849 12.0323869 59.744556 12.0323869C59.2028028 13.1347049 58.0282149 13.6013461 56.854439 13.6013461 53.9108641 13.6013461 52.4836025 11.3402746 52.4836025 8.4448796 52.4836025 4.95089001 54.4886168 3.41874235 56.5299014 3.41874235 57.7032713 3.41874235 59.0035871 3.86738376 59.6357452 4.93180752L59.6725568 4.93180752 59.6725568 0 61.7312998 0 61.7312998 13.3405522 61.7311645 13.3402815M57.1256539 11.9204634C58.9677229 11.9204634 59.7446913 10.1826038 59.7446913 8.50063835 59.7446913 6.37138483 58.7514546 5.10003114 57.1616535 5.10003114 55.228909 5.10003114 54.5424808 6.87524365 54.5424808 8.61256185 54.5424808 10.2755801 55.3369077 11.920328 57.12606 11.920328M69.9136261 6.93885194C69.7509513 5.76169264 68.9202541 5.1260158 67.7824779 5.1260158 66.7162947 5.1260158 65.2175752 5.70552788 65.2175752 8.63908788 65.2175752 10.2460768 65.9035973 11.9465834 67.6920729 11.9465834 68.8838485 11.9465834 69.7144103 11.1234651 69.9136261 9.7408646L71.9725045 9.7408646C71.5930201 12.244595 70.0943006 13.6271955 67.6920729 13.6271955 64.7659564 13.6271955 63.1585615 11.4789948 63.1585615 8.63908788 63.1585615 5.72447503 64.6938219 3.44486235 67.7642074 3.44486235 69.9316259 3.44486235 71.7743714 4.56585687 71.9725045 6.93898727L69.9168742 6.93898727 69.9136261 6.93885194M90.4699293 5.05117456C90.0544451 3.94939785 88.9893449 3.444321 87.8511626 3.444321 86.369225 3.444321 85.5923922 4.09813297 84.9793162 5.05117456L84.9251815 3.70619766 82.9736252 3.70619766 82.9736252 11.9330497C81.7989019 11.9463128 81.6892792 11.9463128 81.5999568 11.9463128 81.2196605 11.9463128 81.1127445 11.7408715 81.1127445 11.2176595L81.1127445 6.24701033C81.1127445 4.21100384 79.1977291 3.444321 77.3729832 3.444321 75.3145109 3.444321 73.2732263 4.17270353 73.1285512 6.65843413L75.1881063 6.65843413C75.27797 5.61201017 76.0912086 5.12588046 77.2472554 5.12588046 78.0784939 5.12588046 79.1801353 5.33199837 79.1801353 6.4341811 79.1801353 7.68591095 77.8606017 7.51768733 76.379882 7.79837581 74.6459472 8.0032757 72.7856079 8.39669971 72.7856079 10.8058297 72.7856079 12.6936424 74.3024624 13.6271955 75.9823979 13.6271955 77.0844453 13.6271955 78.4033021 13.2722071 79.2153228 12.4515249 79.3777269 13.3290486 79.9732088 13.6271955 80.80553 13.6271955 81.147932 13.6271955 81.7989019 13.4970015 84.9901431 13.3848074L85.0320977 7.63028754C85.0320977 6.02343397 86.0078756 5.12615113 87.0729757 5.12615113 88.3194276 5.12615113 88.7173177 5.83572186 88.7173177 7.16337565L88.7173177 13.3661308 90.7757908 13.3661308 90.7757908 7.7048581C90.7757908 6.07905739 91.3712719 5.12628647 92.762534 5.12628647 94.3703354 5.12628647 94.4610108 6.19125157 94.4610108 7.72394059L94.4610108 13.3659955 96.519483 13.3659955 96.519483 6.69605776C96.5208363 4.34133316 95.3650606 3.44459167 93.3972639 3.44459167 92.0411892 3.444321 91.1560868 4.06132137 90.4699293 5.05117456zM76.7423139 11.9465834C76.0202921 11.9465834 74.8461103 11.6653536 74.8461103 10.713124 74.8461103 9.59158811 75.6412139 9.25514085 76.5256397 9.1054584 77.4292833 8.93750546 78.4222493 8.95685859 79.054272 8.52702907L79.054272 10.1152061C79.054272 11.4603184 77.6454162 11.9465834 76.7423139 11.9465834zM100.33192 3.70619766L100.33192 5.01409229 100.368462 5.01409229C100.946349 3.9120449 102.065584 3.444321 103.257901 3.444321 106.20283 3.444321 107.62928 5.76182798 107.62928 8.58332916 107.62928 11.1794945 106.365234 13.6271955 103.601657 13.6271955 102.40934 13.6271955 101.126347 13.1790955 100.47673 12.114807L100.44019 12.114807 100.44019 16.9341497 98.3817174 16.9341497 98.3817174 3.70619766 100.33192 3.70619766zM100.368462 8.54529948C100.368462 10.4879236 101.325292 11.9461774 102.987228 11.9461774 104.865703 11.9461774 105.570807 10.226859 105.570807 8.54529948 105.570807 6.7893048 104.684351 5.12588046 102.987228 5.12588046 101.253564 5.12588046 100.368462 6.49007518 100.368462 8.54529948z"/>
    <polygon fill="#1DA0C3" fill-rule="nonzero" points="0 13.285 7.197 0 22.609 0 15.412 13.285"/>
  </g>
</svg>
