<svg xmlns="http://www.w3.org/2000/svg" width="26" height="26" viewBox="0 0 26 26">
  <path fill-rule="evenodd" d="M11.4285714,19.7 C16.3576486,19.7 20.3571429,15.6277877 20.3571429,10.6 C20.3571429,5.57221231 16.3576486,1.5 11.4285714,1.5 C6.49949424,1.5 2.5,5.57221231 2.5,10.6 C2.5,15.6277877 6.49949424,19.7 11.4285714,19.7 Z M18.3842838,17.8071784 L24.3766585,24.6711712 C24.8150969,25.1733825 24.06178,25.8310401 23.6233415,25.3288288 L17.6424011,18.4779334 C15.941606,19.8680459 13.7809287,20.7 11.4285714,20.7 C5.94313619,20.7 1.5,16.1760795 1.5,10.6 C1.5,5.02392049 5.94313619,0.5 11.4285714,0.5 C16.9140067,0.5 21.3571429,5.02392049 21.3571429,10.6 C21.3571429,13.4218261 20.2192741,15.9741985 18.3842838,17.8071784 Z"/>
</svg>
