<svg xmlns="http://www.w3.org/2000/svg" width="15" height="16" viewBox="0 0 15 16">
  <path fill="#333" d="M10.7070382,10.4678181 L14.4403717,14.6678181 C14.8832809,15.1660909 14.1358716,15.8304548 13.6929623,15.3321819 L9.95962892,11.1321819 C9.51671968,10.6339091 10.264129,9.9695452 10.7070382,10.4678181 Z M6.60000014,11.7 C9.41665245,11.7 11.7000003,9.41665222 11.7000003,6.6 C11.7000003,3.78334778 9.41665245,1.5 6.60000014,1.5 C3.78334784,1.5 1.5,3.78334778 1.5,6.6 C1.5,9.41665222 3.78334784,11.7 6.60000014,11.7 Z M6.60000014,12.7 C3.23106309,12.7 0.5,9.96893698 0.5,6.6 C0.5,3.23106302 3.23106309,0.5 6.60000014,0.5 C9.96893719,0.5 12.7000003,3.23106302 12.7000003,6.6 C12.7000003,9.96893698 9.96893719,12.7 6.60000014,12.7 Z"/>
</svg>
